<svg width="27" height="27" viewBox="0 0 27 27" fill="none" xmlns="http://www.w3.org/2000/svg">
<path d="M9.05839 6.56662C10.4567 5.94531 11.9698 5.62451 13.4999 5.625C16.8243 5.625 19.4725 7.10437 21.4424 8.847C23.4179 10.5941 24.6666 12.5674 25.1628 13.437C25.1741 13.4557 25.1803 13.477 25.1808 13.4989C25.1803 13.5227 25.1738 13.5459 25.1616 13.5664C24.6558 14.443 24.0802 15.2774 23.4404 16.0616C23.3661 16.147 23.3097 16.2464 23.2746 16.354C23.2395 16.4616 23.2264 16.5752 23.2361 16.6879C23.2458 16.8007 23.2781 16.9104 23.3311 17.0104C23.384 17.1104 23.4566 17.1988 23.5444 17.2702C23.6322 17.3416 23.7334 17.3946 23.8421 17.4261C23.9509 17.4576 24.0648 17.4669 24.1772 17.4534C24.2895 17.4399 24.3981 17.404 24.4963 17.3477C24.5945 17.2915 24.6803 17.216 24.7488 17.1259C25.4472 16.2704 26.0755 15.3599 26.6275 14.4034C26.7853 14.1293 26.8685 13.8186 26.8687 13.5024C26.8689 13.1862 26.7861 12.8754 26.6286 12.6011C26.083 11.6449 24.7274 9.4995 22.5606 7.58363C20.3894 5.66325 17.3609 3.9375 13.4999 3.9375C11.593 3.9375 9.88302 4.35825 8.37889 5.02087C8.17517 5.1117 8.0157 5.2795 7.93535 5.48758C7.85501 5.69566 7.86032 5.92709 7.95014 6.13126C8.03996 6.33543 8.20697 6.49573 8.41465 6.57711C8.62233 6.65848 8.85378 6.65543 9.05839 6.56662ZM21.5616 20.2354C19.4939 21.8025 16.7995 23.0625 13.4999 23.0625C9.63889 23.0625 6.60927 21.3368 4.43914 19.4175C2.27239 17.5005 0.915645 15.354 0.371145 14.3978C0.213991 14.1238 0.131395 13.8134 0.131592 13.4976C0.13179 13.1818 0.214773 12.8715 0.37227 12.5977C1.37874 10.853 2.63603 9.26556 4.10389 7.88625L1.48152 6.03225C1.38756 5.96975 1.30709 5.88904 1.24487 5.79489C1.18265 5.70074 1.13995 5.59507 1.1193 5.48413C1.09865 5.37319 1.10046 5.25923 1.12463 5.149C1.1488 5.03877 1.19483 4.9345 1.26001 4.84238C1.32519 4.75026 1.40819 4.67215 1.50409 4.61267C1.59999 4.55319 1.70685 4.51355 1.81834 4.4961C1.92983 4.47866 2.04369 4.48375 2.15318 4.51109C2.26267 4.53842 2.36556 4.58744 2.45577 4.65525L25.5183 20.9678C25.6122 21.0302 25.6927 21.111 25.7549 21.2051C25.8171 21.2993 25.8598 21.4049 25.8805 21.5159C25.9011 21.6268 25.8993 21.7408 25.8752 21.851C25.851 21.9612 25.805 22.0655 25.7398 22.1576C25.6746 22.2497 25.5916 22.3279 25.4957 22.3873C25.3998 22.4468 25.2929 22.4864 25.1814 22.5039C25.07 22.5213 24.9561 22.5162 24.8466 22.4889C24.7371 22.4616 24.6342 22.4126 24.544 22.3447L21.5616 20.2354ZM5.51464 8.88525C3.56839 10.6189 2.33314 12.5674 1.83814 13.4348C1.82571 13.4547 1.81909 13.4777 1.81902 13.5011C1.81902 13.518 1.82239 13.5394 1.83702 13.563C2.33314 14.4338 3.58189 16.4059 5.55739 18.153C7.52614 19.8956 10.1755 21.375 13.4999 21.375C16.1256 21.375 18.3261 20.4525 20.1081 19.2071L16.1526 16.4093C15.4893 17.0148 14.6389 17.3754 13.7424 17.4312C12.846 17.487 11.9574 17.2346 11.2241 16.7159C10.4908 16.1973 9.95687 15.4435 9.7109 14.5796C9.46493 13.7158 9.52169 12.7938 9.87177 11.9666L5.51464 8.88638V8.88525Z" fill="#BFBFBF"/>
</svg>
